<?xml version="1.0" standalone="no"?><!-- Generator: Gravit.io --><svg xmlns="http://www.w3.org/2000/svg" xmlns:xlink="http://www.w3.org/1999/xlink" style="isolation:isolate" viewBox="0 0 320 320" width="320" height="320"><defs><clipPath id="_clipPath_tnEDX3Jw6Pcv26ug5dMdpiTsu6dhOWBV"><rect width="320" height="320"/></clipPath></defs><g clip-path="url(#_clipPath_tnEDX3Jw6Pcv26ug5dMdpiTsu6dhOWBV)"><g id="Group"><rect x="79.982" y="0" width="40" height="40" transform="matrix(1,0,0,1,0,0)" fill="rgb(204,204,204)" fill-opacity="0.8"/><rect x="39.982" y="40" width="40" height="40" transform="matrix(1,0,0,1,0,0)" fill="rgb(204,204,204)" fill-opacity="0.8"/><path d=" M 79.982 80 L 159.982 80 L 159.982 80 C 226.212 80 279.982 133.77 279.982 200 C 279.982 266.23 226.212 320 159.982 320 C 93.752 320 39.982 266.23 39.982 200 L 39.982 120 L 79.982 120 L 79.982 80 Z  M 223.525 165.248 L 163.982 239 L 133.755 201.726 L 100.244 240.933 C 92.244 229.285 87.56 215.185 87.56 200 C 87.56 160.029 120.011 127.578 159.982 127.578 C 187.363 127.578 211.216 142.806 223.525 165.248 L 223.525 165.248 Z " fill-rule="evenodd" fill="rgb(204,204,204)" fill-opacity="0.8"/></g><path d=" M 133.755 201.726 L 163.982 239 L 254.982 126 Q 278.482 152.953 279.982 201.726 C 281.482 250.5 235.982 320 163.982 320 Q 103.982 320 66.982 275 L 133.755 201.726 Z " fill="rgb(204,204,204)"/></g></svg>